{
    "asset": {
        "premultipliedAlpha": true,
        "profile": {
            "api": "WebGL",
            "version": "1.0.2"
        },
        "generator": "COLLADA2GLTF",
        "version": "1.0"
    },
    "scenes": {
        "scene_0": {
            "nodes": [
                "node_0"
            ]
        }
    },
    "scene": "scene_0",
    "nodes": {
        "node_0": {
            "children": [
                "product-f3c6b01b-b40f-4076-b4e9-5996992d6bec-body"
            ],
            "matrix": [
                1.0,
                0.0,
                0.0,
                0.0,
                0.0,
                0.0,
                -1.0,
                0.0,
                0.0,
                1.0,
                0.0,
                0.0,
                0.0,
                0.0,
                0.0,
                1.0
            ],
            "name": "Z_UP"
        },
        "product-f3c6b01b-b40f-4076-b4e9-5996992d6bec-body": {
            "meshes": [
                "representation-189"
            ],
            "matrix": [
                1.0,
                0.0,
                0.0,
                0.0,
                0.0,
                1.0,
                0.0,
                0.0,
                0.0,
                0.0,
                1.0,
                0.0,
                -0.00004529493162408471,
                0.2374809831380844,
                0.0,
                1.0
            ],
            "name": "product-f3c6b01b-b40f-4076-b4e9-5996992d6bec-body"
        }
    },
    "meshes": {
        "representation-189": {
            "primitives": [
                {
                    "attributes": {
                        "NORMAL": "accessor_1",
                        "POSITION": "accessor_2"
                    },
                    "indices": "accessor_0",
                    "mode": 4,
                    "material": "surface-style-182-mauerwerk---sichtmauerwerk-fx"
                }
            ],
            "name": "representation-189"
        }
    },
    "accessors": {
        "accessor_0": {
            "bufferView": "bufferView_0",
            "byteOffset": 0,
            "componentType": 5123,
            "count": 36,
            "max": [
                23
            ],
            "min": [
                0
            ],
            "type": "SCALAR"
        },
        "accessor_1": {
            "bufferView": "bufferView_1",
            "byteOffset": 0,
            "byteStride": 12,
            "componentType": 5126,
            "count": 24,
            "max": [
                1.0,
                1.0,
                1.0
            ],
            "min": [
                -1.0,
                -1.0,
                -1.0
            ],
            "type": "VEC3"
        },
        "accessor_2": {
            "bufferView": "bufferView_1",
            "byteOffset": 288,
            "byteStride": 12,
            "componentType": 5126,
            "count": 24,
            "max": [
                10.0,
                0.23749999701976777,
                3.0
            ],
            "min": [
                0.0,
                -0.23749999701976777,
                0.0
            ],
            "type": "VEC3"
        }
    },
    "materials": {
        "surface-style-182-mauerwerk---sichtmauerwerk-fx": {
            "values": {
                "diffuse": [
                    0.5098039507865906,
                    0.28235292434692385,
                    0.1764705926179886,
                    1.0
                ]
            },
            "technique": "technique_0",
            "name": "surface-style-182-mauerwerk---sichtmauerwerk-fx"
        }
    },
    "techniques": {
        "technique_0": {
            "attributes": {
                "a_normal": "normal",
                "a_position": "position"
            },
            "parameters": {
                "diffuse": {
                    "type": 35666
                },
                "modelViewMatrix": {
                    "semantic": "MODELVIEW",
                    "type": 35676
                },
                "normal": {
                    "semantic": "NORMAL",
                    "type": 35665
                },
                "normalMatrix": {
                    "semantic": "MODELVIEWINVERSETRANSPOSE",
                    "type": 35675
                },
                "position": {
                    "semantic": "POSITION",
                    "type": 35665
                },
                "projectionMatrix": {
                    "semantic": "PROJECTION",
                    "type": 35676
                }
            },
            "program": "program_0",
            "states": {
                "enable": [
                    2884,
                    2929
                ]
            },
            "uniforms": {
                "u_diffuse": "diffuse",
                "u_modelViewMatrix": "modelViewMatrix",
                "u_normalMatrix": "normalMatrix",
                "u_projectionMatrix": "projectionMatrix"
            }
        }
    },
    "programs": {
        "program_0": {
            "attributes": [
                "a_normal",
                "a_position"
            ],
            "fragmentShader": "shader_1",
            "vertexShader": "shader_0"
        }
    },
    "shaders": {
        "shader_0": {
            "type": 35633,
            "uri": "data:text/plain;base64,"
        },
        "shader_1": {
            "type": 35632,
            "uri": "data:text/plain;base64,"
        }
    },
    "bufferViews": {
        "bufferView_0": {
            "buffer": "buffer_0",
            "byteOffset": 576,
            "byteLength": 72,
            "target": 34963
        },
        "bufferView_1": {
            "buffer": "buffer_0",
            "byteOffset": 0,
            "byteLength": 576,
            "target": 34962
        }
    },
    "buffers": {
        "buffer_0": {
            "byteLength": 648,
            "uri": "data:application/octet-stream;base64,"
        }
    }
}
