<svg xmlns="http://www.w3.org/2000/svg" viewBox="0 0 376 56"><defs><style>.cls-1{fill:#036;}.cls-2{fill:#738fab;}.cls-3{fill:#d9e0e8;}</style></defs><g id="bbsr"><path class="cls-1" d="M74.86,2.12H78.7a7.18,7.18,0,0,1,3.9.81,2.82,2.82,0,0,1,1.21,2.55,3,3,0,0,1-.67,2,3.25,3.25,0,0,1-2,1v.1q3.09.53,3.09,3.24A3.49,3.49,0,0,1,83,14.66a5.22,5.22,0,0,1-3.43,1H74.86Zm1.58,5.81H79a4.22,4.22,0,0,0,2.4-.53,2,2,0,0,0,.74-1.77A1.78,1.78,0,0,0,81.36,4a5.08,5.08,0,0,0-2.6-.51H76.44Zm0,1.33v5.08h2.83a4,4,0,0,0,2.47-.64,2.33,2.33,0,0,0,.83-2,2.1,2.1,0,0,0-.84-1.85,4.52,4.52,0,0,0-2.59-.6Z"/><path class="cls-1" d="M88.2,5.51v6.6A2.65,2.65,0,0,0,88.77,14a2.31,2.31,0,0,0,1.77.61,2.89,2.89,0,0,0,2.33-.87,4.44,4.44,0,0,0,.74-2.85V5.51h1.54V15.68H93.88l-.22-1.36h-.09a3.06,3.06,0,0,1-1.31,1.15,4.51,4.51,0,0,1-1.92.4A3.9,3.9,0,0,1,87.57,15a3.74,3.74,0,0,1-.93-2.82V5.51Z"/><path class="cls-1" d="M105.18,15.68V9.1a2.69,2.69,0,0,0-.56-1.85,2.3,2.3,0,0,0-1.77-.61,2.9,2.9,0,0,0-2.34.86,4.31,4.31,0,0,0-.74,2.85v5.33H98.23V5.51h1.25l.25,1.4h.07a3.16,3.16,0,0,1,1.33-1.17,4.37,4.37,0,0,1,1.9-.41,3.87,3.87,0,0,1,2.77.88,3.82,3.82,0,0,1,.92,2.84v6.63Z"/><path class="cls-1" d="M116.62,14.32h-.09a3.62,3.62,0,0,1-3.19,1.55,3.77,3.77,0,0,1-3.1-1.37,6,6,0,0,1-1.11-3.87,6.13,6.13,0,0,1,1.11-3.91,3.76,3.76,0,0,1,3.1-1.39,3.72,3.72,0,0,1,3.18,1.5h.12l-.07-.73,0-.72V1.25h1.54V15.68h-1.25Zm-3.08.26a2.83,2.83,0,0,0,2.29-.86,4.37,4.37,0,0,0,.7-2.77v-.32a5.19,5.19,0,0,0-.71-3.09,2.76,2.76,0,0,0-2.3-.92,2.36,2.36,0,0,0-2.07,1,5.21,5.21,0,0,0-.72,3,5,5,0,0,0,.71,2.94A2.42,2.42,0,0,0,113.54,14.58Z"/><path class="cls-1" d="M125.45,15.87a4.65,4.65,0,0,1-3.56-1.38,5.29,5.29,0,0,1-1.31-3.81,5.91,5.91,0,0,1,1.21-3.9,4,4,0,0,1,3.26-1.45,3.85,3.85,0,0,1,3,1.25,4.84,4.84,0,0,1,1.11,3.32v1h-7a4,4,0,0,0,.9,2.71,3.14,3.14,0,0,0,2.42.93,8.31,8.31,0,0,0,3.25-.68v1.37a8.4,8.4,0,0,1-1.55.5A8,8,0,0,1,125.45,15.87ZM125,6.62a2.47,2.47,0,0,0-2,.8,3.58,3.58,0,0,0-.86,2.2h5.31a3.35,3.35,0,0,0-.65-2.23A2.29,2.29,0,0,0,125,6.62Z"/><path class="cls-1" d="M138.18,12.91a2.55,2.55,0,0,1-1.06,2.19,5,5,0,0,1-3,.77,6.5,6.5,0,0,1-3.15-.64V13.8a7.35,7.35,0,0,0,1.57.58,6.24,6.24,0,0,0,1.62.22,3.61,3.61,0,0,0,1.85-.39,1.26,1.26,0,0,0,.65-1.17,1.28,1.28,0,0,0-.51-1,8.24,8.24,0,0,0-2-1,10.9,10.9,0,0,1-2-.92,2.79,2.79,0,0,1-.89-.89A2.42,2.42,0,0,1,131,8a2.29,2.29,0,0,1,1-2,4.73,4.73,0,0,1,2.78-.72A8.07,8.07,0,0,1,138,6l-.55,1.25a7.4,7.4,0,0,0-2.78-.63A3.17,3.17,0,0,0,133,7a1.07,1.07,0,0,0-.55,1,1.13,1.13,0,0,0,.21.69,1.93,1.93,0,0,0,.67.55,16,16,0,0,0,1.78.75,6.59,6.59,0,0,1,2.44,1.33A2.3,2.3,0,0,1,138.18,12.91Z"/><path class="cls-1" d="M140.36,2.76a1.06,1.06,0,0,1,.26-.78.93.93,0,0,1,.65-.24.89.89,0,0,1,.64.25,1,1,0,0,1,.27.77,1,1,0,0,1-.27.77.93.93,0,0,1-1.29,0A1.05,1.05,0,0,1,140.36,2.76ZM142,15.68h-1.54V5.51H142Z"/><path class="cls-1" d="M152.07,15.68V9.1a2.64,2.64,0,0,0-.57-1.85,2.3,2.3,0,0,0-1.77-.61,2.92,2.92,0,0,0-2.34.86,4.37,4.37,0,0,0-.74,2.85v5.33h-1.54V5.51h1.25l.25,1.4h.08A3.07,3.07,0,0,1,148,5.74a4.42,4.42,0,0,1,1.91-.41,3.86,3.86,0,0,1,2.76.88,3.78,3.78,0,0,1,.93,2.84v6.63Z"/><path class="cls-1" d="M163.14,12.91a2.55,2.55,0,0,1-1.06,2.19,5,5,0,0,1-3,.77,6.52,6.52,0,0,1-3.15-.64V13.8a7.35,7.35,0,0,0,1.57.58,6.24,6.24,0,0,0,1.62.22,3.68,3.68,0,0,0,1.86-.39,1.32,1.32,0,0,0,.13-2.19,8.24,8.24,0,0,0-2-1,11.23,11.23,0,0,1-2-.92,2.9,2.9,0,0,1-.89-.89,2.42,2.42,0,0,1-.29-1.2,2.29,2.29,0,0,1,1-2,4.73,4.73,0,0,1,2.78-.72,8.07,8.07,0,0,1,3.21.67l-.55,1.25a7.39,7.39,0,0,0-2.77-.63A3.24,3.24,0,0,0,158,7a1.07,1.07,0,0,0-.55,1,1.13,1.13,0,0,0,.21.69,2,2,0,0,0,.67.55,16,16,0,0,0,1.78.75,6.5,6.5,0,0,1,2.44,1.33A2.3,2.3,0,0,1,163.14,12.91Z"/><path class="cls-1" d="M168.74,14.6a5.16,5.16,0,0,0,.79-.06,5.85,5.85,0,0,0,.6-.13v1.18a2.73,2.73,0,0,1-.74.2,5.73,5.73,0,0,1-.87.08q-3,0-3-3.11v-6h-1.46V6l1.46-.64.65-2.17h.89V5.51h2.95v1.2h-2.95v6a2,2,0,0,0,.43,1.41A1.52,1.52,0,0,0,168.74,14.6Z"/><path class="cls-1" d="M171.84,2.76A1.06,1.06,0,0,1,172.1,2a.93.93,0,0,1,.65-.24.89.89,0,0,1,.64.25,1,1,0,0,1,.27.77,1,1,0,0,1-.27.77.93.93,0,0,1-1.29,0A1.05,1.05,0,0,1,171.84,2.76Zm1.67,12.92H172V5.51h1.54Z"/><path class="cls-1" d="M179.87,14.6a5.06,5.06,0,0,0,.79-.06,5.31,5.31,0,0,0,.6-.13v1.18a2.64,2.64,0,0,1-.73.2,6,6,0,0,1-.88.08q-3,0-3-3.11v-6h-1.46V6l1.46-.64.65-2.17h.89V5.51h2.95v1.2h-2.95v6a2,2,0,0,0,.44,1.41A1.51,1.51,0,0,0,179.87,14.6Z"/><path class="cls-1" d="M184.55,5.51v6.6a2.65,2.65,0,0,0,.57,1.86,2.34,2.34,0,0,0,1.77.61,2.89,2.89,0,0,0,2.33-.87,4.38,4.38,0,0,0,.74-2.85V5.51h1.54V15.68h-1.27L190,14.32h-.09a3.06,3.06,0,0,1-1.31,1.15,4.5,4.5,0,0,1-1.91.4,3.91,3.91,0,0,1-2.78-.88,3.74,3.74,0,0,1-.93-2.82V5.51Z"/><path class="cls-1" d="M197.86,14.6a5.06,5.06,0,0,0,.79-.06,5.85,5.85,0,0,0,.6-.13v1.18a2.64,2.64,0,0,1-.73.2,6,6,0,0,1-.88.08q-3,0-2.95-3.11v-6h-1.46V6l1.46-.64.65-2.17h.89V5.51h3v1.2h-3v6a2,2,0,0,0,.43,1.41A1.53,1.53,0,0,0,197.86,14.6Z"/><path class="cls-1" d="M210.42,6.71h-2.59v9h-1.54v-9h-1.81V6l1.81-.55V4.89c0-2.5,1.1-3.75,3.28-3.75a6.59,6.59,0,0,1,1.89.33l-.4,1.23a5.08,5.08,0,0,0-1.52-.28,1.48,1.48,0,0,0-1.29.58,3.18,3.18,0,0,0-.42,1.85v.66h2.59Z"/><path class="cls-1" d="M213.54,5.51v6.6A2.65,2.65,0,0,0,214.1,14a2.34,2.34,0,0,0,1.77.61,2.9,2.9,0,0,0,2.34-.87,4.45,4.45,0,0,0,.73-2.85V5.51h1.54V15.68h-1.27L219,14.32h-.08a3.15,3.15,0,0,1-1.32,1.15,4.43,4.43,0,0,1-1.91.4A3.93,3.93,0,0,1,212.9,15a3.78,3.78,0,0,1-.92-2.82V5.51Zm.09-2.75a.88.88,0,0,1,.25-.7.84.84,0,0,1,.58-.21.92.92,0,0,1,.61.21.88.88,0,0,1,.26.7.88.88,0,0,1-.26.69.89.89,0,0,1-.61.23.82.82,0,0,1-.58-.23A.87.87,0,0,1,213.63,2.76Zm3.53,0a.92.92,0,0,1,.25-.7.87.87,0,0,1,.59-.21.91.91,0,0,1,.6.21.88.88,0,0,1,.25.7.87.87,0,0,1-.25.69.88.88,0,0,1-.6.23.84.84,0,0,1-.59-.23A.91.91,0,0,1,217.16,2.76Z"/><path class="cls-1" d="M228.2,5.33a6.24,6.24,0,0,1,1.21.11l-.21,1.43a5.42,5.42,0,0,0-1.11-.14,2.7,2.7,0,0,0-2.11,1,3.64,3.64,0,0,0-.88,2.5v5.45h-1.54V5.51h1.27L225,7.4h.07a4.45,4.45,0,0,1,1.37-1.53A3,3,0,0,1,228.2,5.33Z"/><path class="cls-1" d="M74.71,26.12h4.22a8.13,8.13,0,0,1,4.19.82,2.86,2.86,0,0,1,1.3,2.61,3.31,3.31,0,0,1-.57,2,2.29,2.29,0,0,1-1.52.93v.1a3,3,0,0,1,1.86,1.07,3.53,3.53,0,0,1,.57,2.1,3.42,3.42,0,0,1-1.34,2.89,5.73,5.73,0,0,1-3.64,1H74.71Zm2.87,5.37h1.67a3.09,3.09,0,0,0,1.7-.36,1.35,1.35,0,0,0,.52-1.2,1.21,1.21,0,0,0-.57-1.12,3.72,3.72,0,0,0-1.8-.34H77.58Zm0,2.28v3.54h1.88a2.73,2.73,0,0,0,1.75-.46,1.66,1.66,0,0,0,.57-1.39c0-1.13-.81-1.69-2.42-1.69Z"/><path class="cls-1" d="M93.65,39.68l-.55-1.41H93a4.23,4.23,0,0,1-1.47,1.25,4.84,4.84,0,0,1-2,.35A3.19,3.19,0,0,1,87.23,39a3.29,3.29,0,0,1-.86-2.43,2.73,2.73,0,0,1,1.16-2.43A6.65,6.65,0,0,1,91,33.28l1.8-.06v-.45a1.41,1.41,0,0,0-1.61-1.58,7.32,7.32,0,0,0-2.92.75L87.34,30a8.48,8.48,0,0,1,4-.93,4.92,4.92,0,0,1,3.2.91,3.34,3.34,0,0,1,1.11,2.76v6.91Zm-.84-4.8-1.09,0a3.56,3.56,0,0,0-1.84.45,1.39,1.39,0,0,0-.6,1.24c0,.8.45,1.2,1.37,1.2a2.15,2.15,0,0,0,1.57-.57,2,2,0,0,0,.59-1.5Z"/><path class="cls-1" d="M105.69,39.68l-.38-1.33h-.14a3,3,0,0,1-1.29,1.12,4.35,4.35,0,0,1-1.91.4,3.62,3.62,0,0,1-2.75-1,3.93,3.93,0,0,1-.93-2.82V29.31h2.83v6.06a2.85,2.85,0,0,0,.4,1.68,1.43,1.43,0,0,0,1.27.56,1.92,1.92,0,0,0,1.72-.79,5,5,0,0,0,.53-2.63V29.31h2.82V39.68Z"/><path class="cls-1" d="M109.73,35.75V33.43h5v2.32Z"/><path class="cls-1" d="M119.34,37.69a28.06,28.06,0,0,1-1.63,4.44h-2c.4-1.64.71-3.2.93-4.66h2.6Z"/><path class="cls-1" d="M134.86,35.92a3.51,3.51,0,0,1-1.32,2.89,5.78,5.78,0,0,1-3.68,1.06,8.54,8.54,0,0,1-3.84-.82V36.38a15.89,15.89,0,0,0,2.33.86,6.68,6.68,0,0,0,1.73.25,2.5,2.5,0,0,0,1.46-.36,1.25,1.25,0,0,0,.5-1.08,1.19,1.19,0,0,0-.22-.71,2.71,2.71,0,0,0-.65-.59,15.86,15.86,0,0,0-1.76-.92,8.87,8.87,0,0,1-1.87-1.12,4.32,4.32,0,0,1-1-1.26,3.91,3.91,0,0,1,.85-4.5,5.1,5.1,0,0,1,3.37-1,8.28,8.28,0,0,1,2,.25,14.77,14.77,0,0,1,2,.71l-.93,2.23a14.47,14.47,0,0,0-1.8-.62,6.07,6.07,0,0,0-1.39-.17,1.8,1.8,0,0,0-1.25.38,1.32,1.32,0,0,0-.26,1.65,1.83,1.83,0,0,0,.56.55,16.16,16.16,0,0,0,1.82,1,7.42,7.42,0,0,1,2.61,1.82A3.57,3.57,0,0,1,134.86,35.92Z"/><path class="cls-1" d="M141.28,37.61a6.34,6.34,0,0,0,1.78-.32v2.1a6.29,6.29,0,0,1-2.6.48A3.19,3.19,0,0,1,138,39a3.72,3.72,0,0,1-.78-2.58v-5h-1.35V30.24l1.56-.95.81-2.19H140v2.21H143v2.12H140v5a1.15,1.15,0,0,0,.34.9A1.36,1.36,0,0,0,141.28,37.61Z"/><path class="cls-1" d="M151.55,39.68,151,38.27h-.08a4.23,4.23,0,0,1-1.47,1.25,4.76,4.76,0,0,1-2,.35,3.17,3.17,0,0,1-2.35-.86,3.29,3.29,0,0,1-.86-2.43,2.72,2.72,0,0,1,1.15-2.43,6.69,6.69,0,0,1,3.49-.87l1.8-.06v-.45a1.42,1.42,0,0,0-1.62-1.58,7.36,7.36,0,0,0-2.92.75L145.24,30a8.51,8.51,0,0,1,4-.93,5,5,0,0,1,3.21.91,3.34,3.34,0,0,1,1.11,2.76v6.91Zm-.83-4.8-1.1,0a3.55,3.55,0,0,0-1.83.45,1.37,1.37,0,0,0-.61,1.24q0,1.2,1.38,1.2a2.16,2.16,0,0,0,1.57-.57,2,2,0,0,0,.59-1.5Z"/><path class="cls-1" d="M159.54,39.87a3.37,3.37,0,0,1-2.87-1.42,6.52,6.52,0,0,1-1-3.94,6.57,6.57,0,0,1,1.06-4,3.47,3.47,0,0,1,2.93-1.43,3.38,3.38,0,0,1,3,1.53h.09a11.88,11.88,0,0,1-.21-2.07V25.25h2.84V39.68h-2.17l-.55-1.34h-.12A3.25,3.25,0,0,1,159.54,39.87Zm1-2.26a1.93,1.93,0,0,0,1.59-.63,3.63,3.63,0,0,0,.55-2.14v-.31a4.26,4.26,0,0,0-.51-2.39,1.93,1.93,0,0,0-1.68-.72,1.65,1.65,0,0,0-1.47.8,4.26,4.26,0,0,0-.52,2.33,4,4,0,0,0,.53,2.3A1.71,1.71,0,0,0,160.53,37.61Z"/><path class="cls-1" d="M172.46,37.61a6.4,6.4,0,0,0,1.78-.32v2.1a6.29,6.29,0,0,1-2.6.48,3.17,3.17,0,0,1-2.47-.86,3.72,3.72,0,0,1-.78-2.58v-5H167V30.24l1.56-.95.81-2.19h1.81v2.21h2.9v2.12h-2.9v5a1.11,1.11,0,0,0,.34.9A1.35,1.35,0,0,0,172.46,37.61Z"/><path class="cls-1" d="M175.22,35.75V33.43h5v2.32Z"/><path class="cls-1" d="M194.16,39.68l-.38-1.33h-.15a2.89,2.89,0,0,1-1.29,1.12,4.31,4.31,0,0,1-1.9.4,3.64,3.64,0,0,1-2.76-1,4,4,0,0,1-.92-2.82V29.31h2.83v6.06a2.94,2.94,0,0,0,.39,1.68,1.45,1.45,0,0,0,1.28.56,1.89,1.89,0,0,0,1.71-.79,5,5,0,0,0,.53-2.63V29.31h2.83V39.68Z"/><path class="cls-1" d="M208.68,39.68h-2.83V33.62a3,3,0,0,0-.39-1.68,1.47,1.47,0,0,0-1.28-.56,1.89,1.89,0,0,0-1.71.79,5,5,0,0,0-.53,2.63v4.88h-2.83V29.31h2.16l.38,1.33h.16a3,3,0,0,1,1.3-1.14,4.44,4.44,0,0,1,1.89-.39,3.65,3.65,0,0,1,2.75,1,4,4,0,0,1,.93,2.83Z"/><path class="cls-1" d="M214.69,39.87a3.39,3.39,0,0,1-2.87-1.42,6.52,6.52,0,0,1-1-3.94,6.51,6.51,0,0,1,1.06-4,3.45,3.45,0,0,1,2.93-1.43,3.36,3.36,0,0,1,3,1.53h.1a11.07,11.07,0,0,1-.22-2.07V25.25h2.84V39.68H218.3l-.55-1.34h-.12A3.23,3.23,0,0,1,214.69,39.87Zm1-2.26a1.9,1.9,0,0,0,1.59-.63,3.62,3.62,0,0,0,.56-2.14v-.31a4.25,4.25,0,0,0-.52-2.39,1.91,1.91,0,0,0-1.67-.72,1.65,1.65,0,0,0-1.47.8,4.25,4.25,0,0,0-.53,2.33,4.09,4.09,0,0,0,.53,2.3A1.72,1.72,0,0,0,215.68,37.61Z"/><path class="cls-1" d="M231.08,34.48v5.2h-2.87V26.12h3.95a6.77,6.77,0,0,1,4.09,1,3.59,3.59,0,0,1,1.33,3.06,3.59,3.59,0,0,1-.66,2.13,4.36,4.36,0,0,1-1.86,1.46q3.06,4.57,4,5.91h-3.19l-3.23-5.2Zm0-2.34H232a3.53,3.53,0,0,0,2-.46,1.6,1.6,0,0,0,.64-1.42,1.5,1.5,0,0,0-.66-1.38,4,4,0,0,0-2-.41h-.88Z"/><path class="cls-1" d="M246.93,39.68l-.55-1.41h-.08a4.06,4.06,0,0,1-1.47,1.25,4.76,4.76,0,0,1-2,.35,3.19,3.19,0,0,1-2.35-.86,3.29,3.29,0,0,1-.86-2.43,2.73,2.73,0,0,1,1.16-2.43,6.65,6.65,0,0,1,3.48-.87l1.8-.06v-.45a1.41,1.41,0,0,0-1.61-1.58,7.4,7.4,0,0,0-2.93.75L240.62,30a8.45,8.45,0,0,1,4-.93,4.92,4.92,0,0,1,3.2.91,3.34,3.34,0,0,1,1.11,2.76v6.91Zm-.84-4.8-1.09,0a3.56,3.56,0,0,0-1.84.45,1.39,1.39,0,0,0-.6,1.24c0,.8.45,1.2,1.37,1.2a2.16,2.16,0,0,0,1.57-.57,2,2,0,0,0,.59-1.5Z"/><path class="cls-1" d="M259,39.68l-.38-1.33h-.15a2.89,2.89,0,0,1-1.29,1.12,4.28,4.28,0,0,1-1.9.4,3.62,3.62,0,0,1-2.75-1,3.93,3.93,0,0,1-.93-2.82V29.31h2.83v6.06a2.85,2.85,0,0,0,.4,1.68,1.43,1.43,0,0,0,1.27.56,1.92,1.92,0,0,0,1.72-.79,5,5,0,0,0,.52-2.63V29.31h2.83V39.68Z"/><path class="cls-1" d="M273.21,39.68h-2.83V33.62a3,3,0,0,0-.38-1.68,1.32,1.32,0,0,0-1.18-.56,1.71,1.71,0,0,0-1.58.8,5.29,5.29,0,0,0-.49,2.62v4.88h-2.83V29.31h2.16l.38,1.33h.16a2.86,2.86,0,0,1,1.21-1.12,3.89,3.89,0,0,1,1.81-.41,3.25,3.25,0,0,1,3.15,1.53H273a2.81,2.81,0,0,1,1.23-1.13,4.17,4.17,0,0,1,1.83-.4,3.63,3.63,0,0,1,2.67.91,4,4,0,0,1,.91,2.9v6.76h-2.84V33.62a3,3,0,0,0-.38-1.68,1.32,1.32,0,0,0-1.18-.56,1.78,1.78,0,0,0-1.56.74,4.26,4.26,0,0,0-.51,2.36Z"/><path class="cls-1" d="M288.12,31.43h-2.45v8.25h-2.83V31.43h-1.56V30.07l1.56-.76v-.76a3.37,3.37,0,0,1,.88-2.59,4,4,0,0,1,2.79-.82,7.27,7.27,0,0,1,2.6.44l-.72,2.08a5.24,5.24,0,0,0-1.58-.27,1,1,0,0,0-.87.36,1.45,1.45,0,0,0-.27.91v.65h2.45Z"/><path class="cls-1" d="M299,34.48a5.56,5.56,0,0,1-1.33,4,4.88,4.88,0,0,1-3.72,1.43,5.17,5.17,0,0,1-2.64-.66,4.31,4.31,0,0,1-1.75-1.88,6.23,6.23,0,0,1-.62-2.85,5.59,5.59,0,0,1,1.33-4A4.88,4.88,0,0,1,294,29.11a5.3,5.3,0,0,1,2.64.65,4.4,4.4,0,0,1,1.75,1.87A6.23,6.23,0,0,1,299,34.48Zm-7.17,0a4.35,4.35,0,0,0,.51,2.33,2.1,2.1,0,0,0,3.27,0,4.41,4.41,0,0,0,.5-2.33,4.31,4.31,0,0,0-.5-2.31,2.14,2.14,0,0,0-3.28,0A4.32,4.32,0,0,0,291.81,34.48Z"/><path class="cls-1" d="M306.92,29.11a4.19,4.19,0,0,1,.95.09l-.21,2.65a3.34,3.34,0,0,0-.83-.09,3,3,0,0,0-2.12.69A2.55,2.55,0,0,0,304,34.4v5.28h-2.83V29.31h2.14l.42,1.74h.14a3.89,3.89,0,0,1,1.3-1.4A3.21,3.21,0,0,1,306.92,29.11Z"/><path class="cls-1" d="M316.8,36.6A2.86,2.86,0,0,1,315.7,39a5.47,5.47,0,0,1-3.32.84,9.67,9.67,0,0,1-1.93-.16,7,7,0,0,1-1.49-.45V36.93a10.44,10.44,0,0,0,1.77.62,7.58,7.58,0,0,0,1.74.25c1,0,1.54-.3,1.54-.89a.75.75,0,0,0-.2-.54,3,3,0,0,0-.71-.48c-.33-.17-.78-.38-1.33-.62a8.32,8.32,0,0,1-1.76-.92,2.6,2.6,0,0,1-.82-1,3.24,3.24,0,0,1-.25-1.36A2.46,2.46,0,0,1,310,29.87a5.25,5.25,0,0,1,3-.76,8.66,8.66,0,0,1,3.64.82l-.85,2c-.52-.22-1-.4-1.46-.55a4.62,4.62,0,0,0-1.38-.21c-.83,0-1.25.23-1.25.68a.8.8,0,0,0,.4.66,11.26,11.26,0,0,0,1.77.82,8.57,8.57,0,0,1,1.78.92,2.63,2.63,0,0,1,.83,1A3.07,3.07,0,0,1,316.8,36.6Z"/><path class="cls-1" d="M323,39.87c-3.22,0-4.84-1.77-4.84-5.32a5.67,5.67,0,0,1,1.32-4,5,5,0,0,1,3.78-1.4,7.19,7.19,0,0,1,3.22.71L325.68,32c-.45-.18-.86-.33-1.24-.44a3.86,3.86,0,0,0-1.15-.17c-1.48,0-2.21,1-2.21,3.13s.73,3,2.21,3a5.25,5.25,0,0,0,1.51-.22,5.75,5.75,0,0,0,1.39-.68V39.1a4.54,4.54,0,0,1-1.39.6A7.85,7.85,0,0,1,323,39.87Z"/><path class="cls-1" d="M338,39.68h-2.83V33.62c0-1.49-.55-2.24-1.67-2.24a1.88,1.88,0,0,0-1.71.81,4.92,4.92,0,0,0-.53,2.61v4.88H328.4V25.25h2.83v2.94c0,.23,0,.76-.06,1.61l-.07.84h.15a3.27,3.27,0,0,1,3-1.53,3.67,3.67,0,0,1,2.78,1,3.89,3.89,0,0,1,.94,2.82Z"/><path class="cls-1" d="M348.05,39.68l-.38-1.33h-.15a3,3,0,0,1-1.29,1.12,4.31,4.31,0,0,1-1.9.4,3.64,3.64,0,0,1-2.76-1,3.93,3.93,0,0,1-.93-2.82V29.31h2.83v6.06a2.93,2.93,0,0,0,.4,1.68,1.44,1.44,0,0,0,1.27.56,1.91,1.91,0,0,0,1.72-.79,5,5,0,0,0,.53-2.63V29.31h2.83V39.68Z"/><path class="cls-1" d="M362.57,39.68h-2.83V33.62a2.87,2.87,0,0,0-.4-1.68,1.45,1.45,0,0,0-1.27-.56,1.92,1.92,0,0,0-1.72.79,5,5,0,0,0-.52,2.63v4.88H353V29.31h2.16l.38,1.33h.15A3,3,0,0,1,357,29.5a4.37,4.37,0,0,1,1.89-.39,3.62,3.62,0,0,1,2.74,1,3.93,3.93,0,0,1,.94,2.83Z"/><path class="cls-1" d="M374.32,29.31v1.44l-1.62.42a2.86,2.86,0,0,1,.44,1.55A3.18,3.18,0,0,1,372,35.33a5.08,5.08,0,0,1-3.24.93l-.51,0-.41,0a1,1,0,0,0-.44.75c0,.4.52.61,1.56.61h1.76a4,4,0,0,1,2.6.73,2.62,2.62,0,0,1,.9,2.15,3.18,3.18,0,0,1-1.52,2.82,7.86,7.86,0,0,1-4.35,1,6.06,6.06,0,0,1-3.32-.76,2.41,2.41,0,0,1-1.15-2.12,2.23,2.23,0,0,1,.59-1.57,3.32,3.32,0,0,1,1.72-.9,1.79,1.79,0,0,1-.77-.61,1.47,1.47,0,0,1-.32-.89,1.44,1.44,0,0,1,.34-1,3.89,3.89,0,0,1,1-.77,2.82,2.82,0,0,1-1.3-1.14,3.4,3.4,0,0,1-.48-1.83A3.25,3.25,0,0,1,365.75,30a4.75,4.75,0,0,1,3.15-.93,8.71,8.71,0,0,1,1,.08l.76.12Zm-8,11.84a1,1,0,0,0,.57.92,3.08,3.08,0,0,0,1.57.33,5.52,5.52,0,0,0,2.38-.42,1.26,1.26,0,0,0,.86-1.14.81.81,0,0,0-.51-.81,4.33,4.33,0,0,0-1.57-.22h-1.47a2.17,2.17,0,0,0-1.3.37A1.13,1.13,0,0,0,366.31,41.15Zm1-8.44a2.08,2.08,0,0,0,.39,1.33,1.64,1.64,0,0,0,2.34,0,2.14,2.14,0,0,0,.37-1.33c0-1.25-.51-1.88-1.54-1.88S367.34,31.46,367.34,32.71Z"/><polygon class="cls-2" points="55 1 16 1 16 10.98 45.02 10.98 45.02 40 55 40 55 1"/><polygon class="cls-3" points="16 17 1 17 1 55 39 55 39 40 16 40 16 17"/><rect class="cls-2" x="16" y="17" width="23" height="23"/></g></svg>